<?xml version="1.0" encoding="UTF-8"?>
<svg version="1.1" xmlns="http://www.w3.org/2000/svg" width="1280" height="1160">
<path d="M0 0 C422.4 0 844.8 0 1280 0 C1280 382.8 1280 765.6 1280 1160 C857.6 1160 435.2 1160 0 1160 C0 777.2 0 394.4 0 0 Z " fill="#FEFEFE" transform="translate(0,0)"/>
<path d="M0 0 C21.78 0 43.56 0 66 0 C66 367.62 66 735.24 66 1114 C44.22 1114 22.44 1114 0 1114 C0 746.38 0 378.76 0 0 Z " fill="#000000" transform="translate(1197,25)"/>
<path d="M0 0 C21.78 0 43.56 0 66 0 C66 367.62 66 735.24 66 1114 C44.22 1114 22.44 1114 0 1114 C0 746.38 0 378.76 0 0 Z " fill="#000000" transform="translate(20,25)"/>
<path d="M0 0 C12.21 0 24.42 0 37 0 C37 105.27 37 210.54 37 319 C25.12 319 13.24 319 1 319 C1 306.79 1 294.58 1 282 C-0.65 282 -2.3 282 -4 282 C-4.32291016 282.99580078 -4.32291016 282.99580078 -4.65234375 284.01171875 C-11.75799171 299.76772075 -26.27048628 313.1180718 -42.26953125 319.25390625 C-45.49330196 320.29025484 -48.7140714 321.1836457 -52 322 C-53.28583984 322.33837891 -53.28583984 322.33837891 -54.59765625 322.68359375 C-78.97432369 328.14667996 -105.11798588 322.05510762 -126 309 C-129.56520983 306.55299241 -132.80362799 303.90958497 -136 301 C-136.90363281 300.17757813 -137.80726563 299.35515625 -138.73828125 298.5078125 C-161.81382996 276.4855046 -173.54064102 244.14372219 -174.33598328 212.59095764 C-174.37261707 209.30261868 -174.36964348 206.01638387 -174.33618164 202.72802734 C-174.31236934 200.2363277 -174.31568649 197.745693 -174.32226562 195.25390625 C-174.30515743 185.33579515 -173.64404283 175.79948936 -172 166 C-171.864729 165.19143555 -171.72945801 164.38287109 -171.59008789 163.54980469 C-167.25148974 139.91520045 -156.06247646 118.77126735 -139 102 C-137.85724609 100.85917969 -137.85724609 100.85917969 -136.69140625 99.6953125 C-119.38299818 83.37141939 -96.83061366 76.399571 -73.44897461 76.60888672 C-71.3032355 76.62506987 -69.159357 76.60888179 -67.01367188 76.58984375 C-48.5307104 76.55847231 -32.12297348 82.88398757 -18.83203125 95.84765625 C-12.82651476 102.30143941 -7.87824018 109.68263972 -3 117 C-2.01 117.33 -1.02 117.66 0 118 C0 79.06 0 40.12 0 0 Z " fill="#020202" transform="translate(977,635)"/>
<path d="M0 0 C11.88 0 23.76 0 36 0 C36 38.61 36 77.22 36 117 C40.25867216 115.93533196 40.51868478 115.83850969 42.734375 112.46484375 C43.22147949 111.74167969 43.70858398 111.01851563 44.21044922 110.2734375 C44.71850098 109.50257813 45.22655273 108.73171875 45.75 107.9375 C57.41903528 90.93113723 71.47700838 80.92800685 91.68359375 76.3984375 C119.01453294 73.11486177 146.71250882 78.36304839 168.75 95.33984375 C178.21521621 102.9450219 185.65494935 111.6668837 192 122 C192.34659668 122.56138672 192.69319336 123.12277344 193.05029297 123.70117188 C213.67292351 157.83651712 215.71625131 202.70339132 206.93359375 240.79296875 C200.09522965 268.25928854 184.69347164 294.88284517 160.20361328 310.05004883 C154.65840505 313.33477549 149.08359375 315.89693948 143 318 C142.09797852 318.3405542 142.09797852 318.3405542 141.17773438 318.68798828 C121.33497716 326.0617164 94.49909521 326.357728 75.046875 317.609375 C61.55965182 310.48535455 51.9887658 301.24571534 43.94287109 288.37084961 C43.50410645 287.6928833 43.0653418 287.01491699 42.61328125 286.31640625 C42.22954346 285.70224854 41.84580566 285.08809082 41.45043945 284.45532227 C39.7358831 282.46522538 39.7358831 282.46522538 35 282 C35 293.88 35 305.76 35 318 C23.45 318 11.9 318 0 318 C0 213.06 0 108.12 0 0 Z " fill="#010101" transform="translate(820,142)"/>
<path d="M0 0 C16.96258597 13.48174903 26.163864 30.44262313 28.7871846 51.85841656 C29.10672716 55.07400648 29.12261575 58.26164914 29.12025452 61.49182129 C29.12153615 62.5556309 29.12153615 62.5556309 29.12284368 63.64093161 C29.12447737 65.99306949 29.11901205 68.34513442 29.11352539 70.69726562 C29.11324304 72.39300535 29.1134022 74.08874521 29.1139679 75.78448486 C29.11425399 80.37065252 29.10838769 84.95679384 29.10139394 89.5429554 C29.09512905 94.3422342 29.09455412 99.14151364 29.09336853 103.9407959 C29.09026445 113.02118929 29.08206352 122.1015706 29.07201904 131.18195868 C29.06082922 141.52293733 29.05534023 151.86391658 29.05032361 162.20489979 C29.03988012 183.46994143 29.02154613 204.73496651 29 226 C16.79 226 4.58 226 -8 226 C-8 215.44 -8 204.88 -8 194 C-8.66 194 -9.32 194 -10 194 C-10.39638672 195.10214844 -10.39638672 195.10214844 -10.80078125 196.2265625 C-12.75511448 200.74635597 -15.84947305 204.253077 -19 208 C-19.50273437 208.60070312 -20.00546875 209.20140625 -20.5234375 209.8203125 C-33.75101143 224.25649724 -53.56734301 231.17897085 -72.65820312 232.1328125 C-98.7787471 233.18112865 -120.74248626 227.96363239 -141.2734375 211.13671875 C-154.24788845 199.16227489 -161.56993345 182.00238839 -162.2734375 164.5078125 C-162.66063099 147.30535886 -161.73738499 132.53251446 -150 119 C-149.28070313 118.15953125 -148.56140625 117.3190625 -147.8203125 116.453125 C-125.40913555 92.20496633 -86.37605814 89.32732232 -55.59765625 85.77734375 C-54.69006561 85.67148453 -53.78247498 85.56562531 -52.84738159 85.45655823 C-48.30887316 84.92802972 -43.76961591 84.41397326 -39.2265625 83.92602539 C-23.06919802 82.56825077 -23.06919802 82.56825077 -10 74 C-6.52061287 63.56183862 -8.54095283 49.77307389 -13 40 C-19.27701856 28.57423709 -28.24608023 22.7848844 -40.42578125 18.91015625 C-46.43208081 17.46624016 -52.54523255 17.67113807 -58.6875 17.6875 C-59.87794922 17.67138672 -61.06839844 17.65527344 -62.29492188 17.63867188 C-80.6055727 17.62871502 -95.28103112 23.3284957 -108.328125 36.14453125 C-112.05980216 40.13262482 -115.11702163 44.37342393 -118 49 C-118.66 49.99 -119.32 50.98 -120 52 C-127.42456544 51.12603867 -133.90105117 48.71637256 -140.875 46.125 C-142.13528642 45.6728139 -143.39570208 45.22098786 -144.65625 44.76953125 C-145.83960938 44.33253906 -147.02296875 43.89554687 -148.2421875 43.4453125 C-149.3235498 43.04844238 -150.40491211 42.65157227 -151.51904297 42.24267578 C-154 41 -154 41 -155 38 C-153.85215499 35.39318356 -152.65785521 33.02473912 -151.25 30.5625 C-150.84531494 29.85037354 -150.44062988 29.13824707 -150.02368164 28.40454102 C-145.87322233 21.37201537 -140.83007151 15.6732086 -135 10 C-134.33355469 9.33613281 -133.66710937 8.67226562 -132.98046875 7.98828125 C-119.69742877 -4.45582989 -102.57988951 -10.64365322 -85 -14 C-84.19401367 -14.16773926 -83.38802734 -14.33547852 -82.55761719 -14.50830078 C-55.75455196 -19.83558852 -22.59589698 -16.31295075 0 0 Z " fill="#010101" transform="translate(438,234)"/>
<path d="M0 0 C17.46972887 13.90717087 27.49845549 34.07733052 30.14453125 56.26953125 C33.01358223 87.48282724 32.61399089 122.69437858 11.5859375 148.05859375 C10.99425781 148.82171875 10.40257812 149.58484375 9.79296875 150.37109375 C-0.20629406 162.57637949 -14.06027708 168.67446558 -29.4140625 171.05859375 C-47.76649773 172.25848501 -64.43351851 169.09792717 -78.6640625 156.68359375 C-80.26409852 155.15926921 -81.84873637 153.61854075 -83.4140625 152.05859375 C-84.04054688 151.4553125 -84.66703125 150.85203125 -85.3125 150.23046875 C-104.83425614 129.91370896 -108.22159764 98.05839305 -107.703125 71.40625 C-107.43176493 63.6724881 -106.3218619 56.5576494 -104.4140625 49.05859375 C-104.14722656 47.82625 -103.88039063 46.59390625 -103.60546875 45.32421875 C-99.10558904 26.04473411 -89.01828307 9.3179201 -72.4140625 -1.94140625 C-50.66055978 -14.0382228 -20.8136952 -14.53208449 0 0 Z " fill="#FEFEFE" transform="translate(946.4140625,754.94140625)"/>
<path d="M0 0 C16.65469183 -0.61975767 32.95376331 3.39044255 45.75 14.5703125 C47.33341391 16.09049103 48.89750182 17.63116801 50.4375 19.1953125 C51.39269531 20.15244141 51.39269531 20.15244141 52.3671875 21.12890625 C72.17894856 42.30547752 74.37441902 72.71761445 73.56738281 100.18945312 C72.50478716 124.78095244 64.15092446 148.74982219 46.4375 166.1953125 C41.22872307 170.82730834 35.84570305 174.45621975 29.4375 177.1953125 C28.77878906 177.48277344 28.12007812 177.77023437 27.44140625 178.06640625 C12.74677578 184.05310755 -7.72320928 183.00502435 -22.1875 177.12890625 C-39.30668736 169.22172062 -50.6909299 154.58330088 -57.38793945 137.28833008 C-68.58343836 106.64630574 -68.69934036 68.32414254 -55.5625 38.1953125 C-47.49425671 21.1878911 -34.51740522 8.73841929 -16.75 2.2578125 C-11.18288617 0.67301367 -5.75865169 0.31571555 0 0 Z " fill="#FEFEFE" transform="translate(920.5625,250.8046875)"/>
<path d="M0 0 C14.9035752 12.0479975 27.9995909 29.55984939 31 49 C31 50.98 31 52.96 31 55 C18.79 55 6.58 55 -6 55 C-7.98 49.555 -7.98 49.555 -10 44 C-16.53448536 31.89007067 -26.4199715 23.26688605 -39 18 C-39.81855469 17.6390625 -40.63710938 17.278125 -41.48046875 16.90625 C-55.20861026 11.96837585 -75.53432322 13.00325408 -88.9140625 18.453125 C-93.91116206 20.95800022 -98.52522657 23.64391993 -103 27 C-103.77859375 27.58394531 -104.5571875 28.16789063 -105.359375 28.76953125 C-122.12614138 42.50093475 -130.39957708 64.53327362 -132.80810547 85.5324707 C-134.3211795 104.98875472 -133.92374514 124.29717421 -128 143 C-127.61585938 144.24394531 -127.23171875 145.48789062 -126.8359375 146.76953125 C-120.45091055 165.07761874 -108.82398809 178.78731223 -92 188 C-76.11618352 195.40685234 -56.9863633 196.39430455 -40.38671875 190.77734375 C-24.55264399 184.39949409 -14.73009498 174.62715553 -8 159 C-7.01 156.03 -7.01 156.03 -6 153 C6.21 153 18.42 153 31 153 C28.81462456 174.85375436 17.40285936 193.24388334 1.0078125 207.65234375 C-12.0044088 217.80863596 -27.78517684 224.35991944 -44 227 C-44.80308594 227.13148438 -45.60617187 227.26296875 -46.43359375 227.3984375 C-74.20659132 230.96031241 -103.90952931 225.7836948 -126.390625 208.43359375 C-150.80515543 188.8533096 -163.05150249 163.17850308 -169 133 C-169.17208984 132.24678467 -169.34417969 131.49356934 -169.52148438 130.7175293 C-171.34834306 122.07841935 -171.39755751 113.47421956 -171.375 104.6875 C-171.37445618 103.89208801 -171.37391235 103.09667603 -171.37335205 102.27716064 C-171.33223819 89.1769701 -170.42370755 76.70417408 -167 64 C-166.79632813 63.22640137 -166.59265625 62.45280273 -166.3828125 61.65576172 C-158.59047316 33.13796429 -140.93162488 7.75029519 -115.08789062 -7.09863281 C-80.40583054 -26.32269672 -31.78812842 -24.57533298 0 0 Z " fill="#020202" transform="translate(448,731)"/>
<path d="M0 0 C0.09990454 5.74335834 0.17195122 11.48619565 0.21972656 17.23022461 C0.23967151 19.17855659 0.26683757 21.12683006 0.30175781 23.07495117 C0.64548581 42.76348889 -2.41806533 58.83057275 -16.53515625 73.65234375 C-30.81602199 87.25424599 -47.98320688 92.42708145 -67.4375 92.3125 C-68.44594971 92.30686035 -69.45439941 92.3012207 -70.4934082 92.29541016 C-84.51319997 92.06663579 -98.11306784 88.32610634 -108.609375 78.4921875 C-115.49154836 71.1073835 -117.57343861 62.89977167 -117.5 53.125 C-117.49427979 52.24239502 -117.48855957 51.35979004 -117.48266602 50.45043945 C-117.23726543 41.50943008 -114.74628494 35.74655158 -108.6875 29.1875 C-93.44777237 15.22594307 -71.59877763 13.29961571 -51.9375 11.0625 C-41.55001937 9.87929887 -31.26577677 8.52479729 -21 6.5 C-20.0112085 6.31058838 -19.02241699 6.12117676 -18.00366211 5.92602539 C-12.5448677 4.79735398 -7.70623792 3.20647217 -2.6796875 0.78710938 C-1 0 -1 0 0 0 Z " fill="#FDFDFD" transform="translate(430,341)"/>
</svg>
